# xmcd
#
# Track frame offsets:
#        150
#        22317
#        45575
#
# Disc length: 903 seconds
#
# Revision: 0
# Processed by: cddbd v1.5.1PL0 Copyright (c) Steve Scherf et al.
# Submitted via: ExactAudioCopy v0.95a5
#
DISCID=21038503
DTITLE=MODE - WILD SIDE
DYEAR=1995
DGENRE=JPop
TTITLE0=WILD SIDE
TTITLE1=SHAKE TO THE FUTURE
TTITLE2=WILD SIDE (INSTRUMENTAL PLEASURE VERSION)
EXTD=
EXTT0=
EXTT1=
EXTT2=
PLAYORDER=
